<svg width="14" height="20" viewBox="0 0 2222 2222" fill="none" xmlns="http://www.w3.org/2000/svg">
<g clip-path="url(#clip0_0_1)">
<path d="M1733.55 1012.74L953.288 1930.43C930.65 1957.07 887.422 1936.61 893.595 1902.22L1004.14 1287.36C1006.44 1274.77 1014.92 1264.11 1026.79 1259.02L1295.47 1143.75C1310.12 1137.46 1321.26 1125.11 1325.98 1109.85L520.9 1264.96C489.177 1271.13 467.503 1233.84 488.329 1209.26L1268.71 291.569C1291.23 264.93 1334.58 285.393 1328.41 319.781L1217.73 934.643C1215.43 947.357 1206.96 957.891 1195.21 962.978L926.407 1078.25C911.755 1084.54 900.62 1097.02 895.892 1112.27L1700.97 957.039C1732.7 950.991 1754.49 988.163 1733.55 1012.74Z" fill="#2D2D2D"/>
<path fill-rule="evenodd" clip-rule="evenodd" d="M1945.81 0H276.07C123.505 0 0 123.626 0 276.07V1945.93C0 2098.38 123.505 2222 276.07 2222H1945.81C2098.37 2222 2222 2098.38 2222 1945.93V276.07C2222 123.626 2098.37 0 1945.81 0ZM953.288 1930.43L1733.55 1012.74C1754.49 988.163 1732.7 950.991 1700.97 957.039L895.892 1112.27C900.62 1097.02 911.755 1084.54 926.407 1078.25L1195.21 962.978C1206.96 957.891 1215.43 947.357 1217.73 934.643L1328.41 319.781C1334.58 285.393 1291.23 264.93 1268.71 291.569L488.329 1209.26C467.503 1233.84 489.177 1271.13 520.9 1264.96L1325.98 1109.85C1321.26 1125.11 1310.12 1137.46 1295.47 1143.75L1026.79 1259.02C1014.92 1264.11 1006.44 1274.77 1004.14 1287.36L893.595 1902.22C887.422 1936.61 930.65 1957.07 953.288 1930.43Z" fill="#B5FF3B"/>
</g>
<defs>
<clipPath id="clip0_0_1">
<rect width="2222" height="2222" fill="white"/>
</clipPath>
</defs>
</svg>
