<svg width="220" height="122" viewBox="0 0 13463 2222" fill="none" xmlns="http://www.w3.org/2000/svg">
<path d="M2775.32 1550C2689.19 1550 2625.86 1546.2 2585.32 1538.6C2544.79 1531 2524.52 1522.13 2524.52 1512L2600.52 1346.7C2629.66 1351.77 2701.86 1356.83 2817.12 1361.9C2933.66 1365.7 3093.26 1367.6 3295.92 1367.6H3332.02C3386.49 1367.6 3425.12 1358.1 3447.92 1339.1C3470.72 1318.83 3482.12 1285.27 3482.12 1238.4V1200.4C3482.12 1156.07 3472.62 1124.4 3453.62 1105.4C3435.89 1086.4 3395.36 1076.9 3332.02 1076.9H2891.22C2763.29 1076.9 2670.19 1053.47 2611.92 1006.6C2553.66 958.467 2524.52 880.567 2524.52 772.9V742.5C2524.52 686.767 2534.66 635.467 2554.92 588.6C2576.46 541.733 2612.56 504.367 2663.22 476.5C2713.89 447.367 2783.56 432.8 2872.22 432.8H3389.02C3475.16 432.8 3544.82 437.233 3598.02 446.1C3651.22 454.967 3677.82 464.467 3677.82 474.6L3639.82 634.2C3606.89 630.4 3532.16 626.6 3415.62 622.8C3299.09 617.733 3142.66 615.2 2946.32 615.2L2925.42 613.3C2867.16 613.3 2827.89 625.333 2807.62 649.4C2787.36 672.2 2776.59 701.333 2775.32 736.8V769.1C2775.32 810.9 2786.72 842.567 2809.52 864.1C2833.59 884.367 2872.86 894.5 2927.32 894.5H3349.12C3430.19 894.5 3499.22 902.733 3556.22 919.2C3613.22 935.667 3656.92 966.067 3687.32 1010.4C3717.72 1053.47 3732.92 1117.43 3732.92 1202.3V1232.7C3732.92 1327.7 3708.22 1404.33 3658.82 1462.6C3610.69 1520.87 3526.46 1550 3406.12 1550H2775.32ZM3960.66 1550V698.8H4116.46L4192.46 736.8C4245.66 726.667 4309.62 717.8 4384.36 710.2C4459.09 702.6 4544.59 698.8 4640.86 698.8H4735.86C4799.19 698.8 4847.96 707.667 4882.16 725.4C4916.36 743.133 4940.42 765.3 4954.36 791.9C4969.56 818.5 4978.42 845.733 4980.96 873.6C4984.76 900.2 4986.66 923 4986.66 942V1550H4754.86V938.2C4754.86 887.533 4724.46 862.2 4663.66 862.2H4249.46C4225.39 862.2 4209.56 864.733 4201.96 869.8C4195.62 873.6 4192.46 885 4192.46 904V1550H3960.66ZM5450.78 1550C5354.51 1550 5284.84 1527.83 5241.78 1483.5C5198.71 1437.9 5177.18 1375.83 5177.18 1297.3C5177.18 1214.97 5199.34 1151.63 5243.68 1107.3C5289.28 1062.97 5358.31 1040.8 5450.78 1040.8H5547.68C5642.68 1040.8 5728.18 1043.33 5804.18 1048.4C5880.18 1053.47 5942.88 1058.53 5992.28 1063.6V938.2C5992.28 926.8 5991.01 915.4 5988.48 904C5985.94 891.333 5978.34 881.2 5965.68 873.6C5953.01 866 5931.48 862.2 5901.08 862.2H5806.08C5668.01 862.2 5552.74 864.733 5460.28 869.8C5367.81 873.6 5305.11 877.4 5272.18 881.2L5251.28 736.8C5251.28 719.067 5299.41 708.3 5395.68 704.5C5491.94 700.7 5652.81 698.8 5878.28 698.8H5973.28C6036.61 698.8 6085.38 707.667 6119.58 725.4C6153.78 743.133 6177.84 765.3 6191.78 791.9C6206.98 818.5 6215.84 845.733 6218.38 873.6C6222.18 900.2 6224.08 923 6224.08 942V1550H6068.28L5994.18 1512C5940.98 1520.87 5877.01 1529.73 5802.28 1538.6C5727.54 1546.2 5642.04 1550 5545.78 1550H5450.78ZM5500.18 1386.6H5935.28C5963.14 1386.6 5979.61 1384.07 5984.68 1379C5989.74 1373.93 5992.28 1358.1 5992.28 1331.5V1185.2H5500.18C5465.98 1185.2 5441.91 1193.43 5427.98 1209.9C5415.31 1226.37 5408.98 1252.33 5408.98 1287.8C5408.98 1323.27 5416.58 1348.6 5431.78 1363.8C5446.98 1379 5469.78 1386.6 5500.18 1386.6ZM6443.27 1903.4V698.8H6599.07L6646.57 723.5C6703.57 717.167 6771.34 711.467 6849.87 706.4C6929.67 701.333 7020.24 698.8 7121.57 698.8H7218.47C7281.81 698.8 7330.57 707.033 7364.77 723.5C7398.97 739.967 7423.04 760.867 7436.97 786.2C7452.17 811.533 7461.04 838.133 7463.57 866C7467.37 893.867 7469.27 919.2 7469.27 942V1306.8C7469.27 1325.8 7467.37 1349.23 7463.57 1377.1C7461.04 1403.7 7452.17 1430.3 7436.97 1456.9C7423.04 1483.5 7398.97 1505.67 7364.77 1523.4C7330.57 1541.13 7281.81 1550 7218.47 1550H7121.57C7025.31 1550 6939.81 1547.47 6865.07 1542.4C6790.34 1537.33 6727.01 1532.27 6675.07 1527.2V1903.4H6443.27ZM6733.97 1386.6H7146.27C7170.34 1386.6 7191.24 1380.27 7208.97 1367.6C7227.97 1354.93 7237.47 1335.93 7237.47 1310.6V938.2C7238.74 910.333 7231.77 890.7 7216.57 879.3C7202.64 867.9 7179.21 862.2 7146.27 862.2H7051.27C6970.21 862.2 6898.01 864.1 6834.67 867.9C6772.61 870.433 6719.41 873.6 6675.07 877.4V1327.7C6675.07 1355.57 6677.61 1372.67 6682.67 1379C6689.01 1384.07 6706.11 1386.6 6733.97 1386.6ZM7910.82 1550C7847.48 1550 7798.72 1541.77 7764.52 1525.3C7730.32 1508.83 7705.62 1487.93 7690.42 1462.6C7676.48 1437.27 7667.62 1410.67 7663.82 1382.8C7661.28 1354.93 7660.02 1329.6 7660.02 1306.8V942C7660.02 923 7661.28 900.2 7663.82 873.6C7667.62 845.733 7676.48 818.5 7690.42 791.9C7705.62 765.3 7730.32 743.133 7764.52 725.4C7799.98 707.667 7848.75 698.8 7910.82 698.8H8174.92C8333.25 698.8 8445.35 703.233 8511.22 712.1C8578.35 719.7 8611.92 727.933 8611.92 736.8L8573.92 881.2C8538.45 878.667 8493.48 876.133 8439.02 873.6C8384.55 869.8 8325.65 867.267 8262.32 866C8200.25 863.467 8139.45 862.2 8079.92 862.2H7983.02C7922.22 862.2 7891.82 887.533 7891.82 938.2V1310.6C7890.55 1361.27 7920.95 1386.6 7983.02 1386.6H8079.92C8148.32 1386.6 8214.82 1385.97 8279.42 1384.7C8345.28 1382.17 8405.45 1379.63 8459.92 1377.1C8514.38 1373.3 8558.08 1370.13 8591.02 1367.6L8667.02 1491.1C8667.02 1530.37 8542.25 1550 8292.72 1550H7910.82ZM8799.72 1550V318.8H9031.52V736.8C9084.72 726.667 9148.69 717.8 9223.42 710.2C9298.15 702.6 9383.65 698.8 9479.92 698.8H9574.92C9638.25 698.8 9687.02 707.667 9721.22 725.4C9755.42 743.133 9779.49 765.3 9793.42 791.9C9808.62 818.5 9817.49 845.733 9820.02 873.6C9823.82 900.2 9825.72 923 9825.72 942V1550H9593.92V938.2C9593.92 887.533 9563.52 862.2 9502.72 862.2H9088.52C9064.45 862.2 9048.62 864.733 9041.02 869.8C9034.69 873.6 9031.52 885 9031.52 904V1550H8799.72ZM10289.8 1550C10193.6 1550 10123.9 1527.83 10080.8 1483.5C10037.8 1437.9 10016.2 1375.83 10016.2 1297.3C10016.2 1214.97 10038.4 1151.63 10082.7 1107.3C10128.3 1062.97 10197.4 1040.8 10289.8 1040.8H10386.7C10481.7 1040.8 10567.2 1043.33 10643.2 1048.4C10719.2 1053.47 10781.9 1058.53 10831.3 1063.6V938.2C10831.3 926.8 10830.1 915.4 10827.5 904C10825 891.333 10817.4 881.2 10804.7 873.6C10792.1 866 10770.5 862.2 10740.1 862.2H10645.1C10507.1 862.2 10391.8 864.733 10299.3 869.8C10206.9 873.6 10144.2 877.4 10111.2 881.2L10090.3 736.8C10090.3 719.067 10138.5 708.3 10234.7 704.5C10331 700.7 10491.9 698.8 10717.3 698.8H10812.3C10875.7 698.8 10924.4 707.667 10958.6 725.4C10992.8 743.133 11016.9 765.3 11030.8 791.9C11046 818.5 11054.9 845.733 11057.4 873.6C11061.2 900.2 11063.1 923 11063.1 942V1550H10907.3L10833.2 1512C10780 1520.87 10716.1 1529.73 10641.3 1538.6C10566.6 1546.2 10481.1 1550 10384.8 1550H10289.8ZM10339.2 1386.6H10774.3C10802.2 1386.6 10818.7 1384.07 10823.7 1379C10828.8 1373.93 10831.3 1358.1 10831.3 1331.5V1185.2H10339.2C10305 1185.2 10281 1193.43 10267 1209.9C10254.4 1226.37 10248 1252.33 10248 1287.8C10248 1323.27 10255.6 1348.6 10270.8 1363.8C10286 1379 10308.8 1386.6 10339.2 1386.6ZM11417.2 579.1C11370.4 579.1 11336.2 569.6 11314.6 550.6C11293.1 531.6 11282.3 499.933 11282.3 455.6C11282.3 410 11292.5 378.333 11312.7 360.6C11334.3 341.6 11369.1 332.1 11417.2 332.1C11465.4 332.1 11500.2 341.6 11521.7 360.6C11543.3 378.333 11554 410 11554 455.6C11554 498.667 11543.3 530.333 11521.7 550.6C11500.2 569.6 11465.4 579.1 11417.2 579.1ZM11301.3 1550V698.8H11533.1V1550H11301.3ZM11781.5 1550V698.8H11937.3L12013.3 736.8C12066.5 726.667 12130.4 717.8 12205.2 710.2C12279.9 702.6 12365.4 698.8 12461.7 698.8H12556.7C12620 698.8 12668.8 707.667 12703 725.4C12737.2 743.133 12761.2 765.3 12775.2 791.9C12790.4 818.5 12799.2 845.733 12801.8 873.6C12805.6 900.2 12807.5 923 12807.5 942V1550H12575.7V938.2C12575.7 887.533 12545.3 862.2 12484.5 862.2H12070.3C12046.2 862.2 12030.4 864.733 12022.8 869.8C12016.4 873.6 12013.3 885 12013.3 904V1550H11781.5Z" fill="#2D2D2D"/>
<g clip-path="url(#clip0_801_13528)">
<path d="M1733.55 1012.74L953.288 1930.43C930.65 1957.07 887.422 1936.61 893.595 1902.22L1004.14 1287.36C1006.44 1274.77 1014.92 1264.11 1026.79 1259.02L1295.47 1143.75C1310.12 1137.46 1321.26 1125.11 1325.98 1109.85L520.9 1264.96C489.177 1271.13 467.503 1233.84 488.329 1209.26L1268.71 291.569C1291.23 264.93 1334.58 285.393 1328.41 319.781L1217.73 934.643C1215.43 947.357 1206.96 957.891 1195.21 962.978L926.407 1078.25C911.755 1084.54 900.62 1097.02 895.892 1112.27L1700.97 957.039C1732.7 950.991 1754.49 988.163 1733.55 1012.74Z" fill="#2D2D2D"/>
<path fill-rule="evenodd" clip-rule="evenodd" d="M1945.81 0H276.07C123.505 0 0 123.626 0 276.07V1945.93C0 2098.38 123.505 2222 276.07 2222H1945.81C2098.37 2222 2222 2098.38 2222 1945.93V276.07C2222 123.626 2098.37 0 1945.81 0ZM953.288 1930.43L1733.55 1012.74C1754.49 988.163 1732.7 950.991 1700.97 957.039L895.892 1112.27C900.62 1097.02 911.755 1084.54 926.407 1078.25L1195.21 962.978C1206.96 957.891 1215.43 947.357 1217.73 934.643L1328.41 319.781C1334.58 285.393 1291.23 264.93 1268.71 291.569L488.329 1209.26C467.503 1233.84 489.177 1271.13 520.9 1264.96L1325.98 1109.85C1321.26 1125.11 1310.12 1137.46 1295.47 1143.75L1026.79 1259.02C1014.92 1264.11 1006.44 1274.77 1004.14 1287.36L893.595 1902.22C887.422 1936.61 930.65 1957.07 953.288 1930.43Z" fill="#B5FF3B"/>
</g>
<defs>
<clipPath id="clip0_801_13528">
<rect width="2222" height="2222" fill="white"/>
</clipPath>
</defs>
</svg>
